<svg width="42" height="36" viewBox="0 0 42 36" fill="none" xmlns="http://www.w3.org/2000/svg">
<path fill-rule="evenodd" clip-rule="evenodd" d="M10.7384 2.93846C10.1659 1.38365 11.5594 -1.42914e-07 13.2162 0L18 4.12634e-07L22.7838 3.86848e-07C24.4406 3.77913e-07 25.8341 1.38365 25.2616 2.93846C25.2389 3.00013 25.2154 3.06155 25.1913 3.1227C24.8001 4.11271 24.2268 5.01226 23.504 5.76999C22.8335 6.47285 22.0467 7.04091 21.1825 7.44678C29.4669 8.74428 36 15.0322 36 23.2002C36 32.3902 34.2162 36.0002 18 36.0002C1.78378 36.0002 0 32.3902 0 23.2002C0 15.0322 6.53314 8.74428 14.8175 7.44678C13.9533 7.04091 13.1665 6.47285 12.496 5.76999C11.7732 5.01226 11.1999 4.11271 10.8087 3.1227C10.7846 3.06155 10.7611 3.00013 10.7384 2.93846Z" fill="#FFBFC9"/>
<rect x="12" y="6" width="12" height="2" rx="1" fill="#EB4351"/>
<path d="M11 22H26" stroke="white" stroke-width="2" stroke-linecap="round"/>
<path d="M13 18L14.8831 27.0388C14.9893 27.5486 15.7068 27.5768 15.8526 27.0769L17.9829 19.773C18.1257 19.2832 18.8242 19.2968 18.9479 19.7918L20.7649 27.0597C20.8912 27.5647 21.6088 27.5647 21.7351 27.0597L24 18" stroke="white" stroke-width="2" stroke-linecap="round"/>
<rect x="28" y="22" width="14" height="14" rx="7" fill="#EB4351"/>
<path d="M35.9162 24L35.7605 30.9168H34.2277L34.0721 24H35.9162ZM34.0002 32.854C33.9883 32.2265 34.4433 31.7149 35.0061 31.7217C35.539 31.7149 36 32.2265 36 32.854C36 33.4884 35.539 34 35.0061 34C34.4433 34 33.9883 33.4884 34.0002 32.854Z" fill="white"/>
</svg>
