<svg width="48" height="48" viewBox="0 0 48 48" fill="none" xmlns="http://www.w3.org/2000/svg">
<rect width="48" height="48" fill="white"/>
<path d="M30.65 9C29.1495 9.00181 27.6714 9.35702 26.3401 10.0357C25.0088 10.7144 23.8633 11.6967 23 12.9C21.8577 11.3063 20.2273 10.1108 18.3452 9.48685C16.4631 8.86288 14.4272 8.84291 12.5327 9.42982C10.6383 10.0167 8.98378 11.18 7.80916 12.7509C6.63453 14.3219 6.00082 16.2188 6 18.1667C6 29 23 39 23 39C23 39 40 29 40 18.1667C40 15.7355 39.0149 13.4039 37.2615 11.6849C35.508 9.96577 33.1298 9 30.65 9Z" fill="#FFBFC9"/>
<rect x="28" y="25" width="14" height="14" rx="7" fill="#EB4351"/>
<path d="M35.9162 27L35.7605 33.9168H34.2277L34.0721 27H35.9162ZM34.0002 35.854C33.9883 35.2265 34.4433 34.7149 35.0061 34.7217C35.539 34.7149 36 35.2265 36 35.854C36 36.4884 35.539 37 35.0061 37C34.4433 37 33.9883 36.4884 34.0002 35.854Z" fill="white"/>
</svg>
