<svg width="44" height="44" viewBox="0 0 44 44" fill="none" xmlns="http://www.w3.org/2000/svg">
<path d="M33.2411 24.6538C32.353 24.148 31.8369 23.2018 31.8588 22.1904C31.8602 22.1271 31.8609 22.0637 31.8609 22.0001C31.8609 21.9365 31.8602 21.8731 31.8588 21.8099C31.8368 20.7984 32.3529 19.8523 33.2411 19.3464C33.9667 18.9331 34.2153 18.0179 33.7964 17.3021L32.2724 14.698C31.8535 13.9822 30.9257 13.737 30.2001 14.1502L30.0562 14.2322C29.2246 14.7058 28.2013 14.7113 27.3645 14.2466L27.2226 14.1678C26.3307 13.6725 25.7789 12.7413 25.7789 11.7316V11.4965C25.7789 10.67 25.0997 10 24.262 10H21.2138C20.376 10 19.6969 10.67 19.6969 11.4965C19.6969 12.6388 19.0778 13.6858 18.0825 14.2696C18.0726 14.2754 18.0627 14.2813 18.0528 14.2871C17.1369 14.829 15.9952 14.831 15.0703 14.3042L14.7998 14.1501C14.0742 13.7368 13.1465 13.9821 12.7276 14.6978L11.2035 17.302C10.7846 18.0178 11.0332 18.933 11.7587 19.3462L12.3048 19.6572C13.1435 20.1349 13.6169 21.0289 13.6149 21.9843C13.6149 21.9895 13.6149 21.9947 13.6149 21.9998C13.6149 22.0049 13.6149 22.0102 13.6149 22.0153C13.6169 22.9707 13.1436 23.8647 12.3048 24.3424L11.7587 24.6534C11.0332 25.0666 10.7846 25.9819 11.2035 26.6976L12.7276 29.3018C13.1465 30.0175 14.0742 30.2628 14.7998 29.8495C15.8918 29.2275 17.2204 29.2638 18.3235 29.8666C18.3336 29.8721 18.3437 29.8776 18.3539 29.8831C19.1993 30.3409 19.6969 31.2437 19.6969 32.1951V32.5032C19.6969 33.3297 20.3761 33.9997 21.2138 33.9997H24.262C25.0998 33.9997 25.7789 33.3297 25.7789 32.5032C25.7789 31.3596 26.3973 30.3029 27.4011 29.7311C28.2027 29.2745 29.1903 29.2744 29.992 29.731L30.2001 29.8495C30.9257 30.2627 31.8535 30.0175 32.2724 29.3017L33.7964 26.6977C34.2153 25.9819 33.9666 25.0671 33.2411 24.6538ZM22.7378 26.0001C20.4984 26.0001 18.6831 24.2092 18.6831 22.0001C18.6831 19.791 20.4985 18.0001 22.7378 18.0001C24.9771 18.0001 26.7925 19.791 26.7925 22.0001C26.7925 24.2092 24.9771 26.0001 22.7378 26.0001Z" fill="#808080"/>
</svg>
