<svg width="24" height="24" viewBox="0 0 24 24" fill="none" xmlns="http://www.w3.org/2000/svg">
<g id="Frame 37024">
<g id="&#240;&#159;&#166;&#134; icon &#34;camera&#34;">
<g id="Group">
<path id="Vector" d="M4 9.375C4 8.4085 4.79594 7.625 5.77778 7.625H6.60412C7.19852 7.625 7.7536 7.33257 8.08332 6.84572L8.80557 5.77928C9.13529 5.29243 9.69036 5 10.2848 5H13.7152C14.3096 5 14.8647 5.29243 15.1944 5.77928L15.9167 6.84572C16.2464 7.33257 16.8015 7.625 17.3959 7.625H18.2222C19.2041 7.625 20 8.4085 20 9.375V17.25C20 18.2165 19.2041 19 18.2222 19H5.77778C4.79594 19 4 18.2165 4 17.25V9.375Z" stroke="#EB4451" stroke-width="1.5" stroke-linecap="round" stroke-linejoin="round"/>
<path id="Vector_2" d="M14.6671 12.875C14.6671 14.3248 13.4732 15.5 12.0004 15.5C10.5276 15.5 9.33374 14.3248 9.33374 12.875C9.33374 11.4252 10.5276 10.25 12.0004 10.25C13.4732 10.25 14.6671 11.4252 14.6671 12.875Z" stroke="#EB4451" stroke-width="1.5" stroke-linecap="round" stroke-linejoin="round"/>
</g>
</g>
</g>
</svg>
