<svg width="16" height="16" viewBox="0 0 16 16" fill="none" xmlns="http://www.w3.org/2000/svg">
<path d="M7.99984 10V11.3333M3.99984 14H11.9998C12.3535 14 12.6926 13.8595 12.9426 13.6095C13.1927 13.3594 13.3332 13.0203 13.3332 12.6667V8.66667C13.3332 8.31304 13.1927 7.97391 12.9426 7.72386C12.6926 7.47381 12.3535 7.33333 11.9998 7.33333H3.99984C3.64622 7.33333 3.30708 7.47381 3.05703 7.72386C2.80698 7.97391 2.6665 8.31304 2.6665 8.66667V12.6667C2.6665 13.0203 2.80698 13.3594 3.05703 13.6095C3.30708 13.8595 3.64622 14 3.99984 14ZM10.6665 7.33333V4.66667C10.6665 3.95942 10.3856 3.28115 9.88546 2.78105C9.38536 2.28095 8.70708 2 7.99984 2C7.29259 2 6.61432 2.28095 6.11422 2.78105C5.61412 3.28115 5.33317 3.95942 5.33317 4.66667V7.33333H10.6665Z" stroke="white" stroke-width="2" stroke-linecap="round" stroke-linejoin="round"/>
</svg>
