<svg width="168" height="174" viewBox="0 0 168 174" fill="none" xmlns="http://www.w3.org/2000/svg">
<g clip-path="url(#clip0_5781_15055)">
<path d="M161.465 142.689H31.0601V148.784H161.465V142.689Z" fill="#563520"/>
<path d="M144.582 68.9725C136.415 59.3853 127.384 48.5599 111.946 42.0798C106.8 39.9198 100.963 38.6339 94.3763 38.7018C94.3763 38.7018 89.9951 38.8065 83.6217 40.5067C66.805 44.9929 44.6387 63.0807 28.1111 76.1117C28.1111 76.1117 18.0002 84.2804 23.0557 99.0619C26.622 109.489 45.0276 104.119 54.9441 101.007L49.5787 142.69H134.244C134.244 142.69 133.27 129.46 131.92 115.927C131.924 115.928 155.029 119.521 159.916 107C166.748 89.4992 144.582 68.9725 144.582 68.9725Z" fill="#29314A"/>
<path d="M54.3526 105.601L49.5786 142.691H134.244C134.244 142.691 133.27 129.46 131.92 115.928L130.775 107.655C96.8131 100.653 54.3535 105.601 54.3526 105.601Z" fill="#FFDE84"/>
<path d="M87.5382 112.308C84.5028 121.828 85.314 132.584 84.4429 142.691H134.244C134.244 142.691 133.27 129.46 131.92 115.928L130.775 107.655C117.042 104.824 101.919 103.947 88.776 103.906C88.8161 104.743 88.8373 105.532 88.7869 106.196C88.6247 108.336 88.1891 110.267 87.5382 112.308Z" fill="#EFB563"/>
<path d="M98.8379 56.6624C108.71 56.9214 111.318 48.0488 111.961 42.0867C106.812 39.9227 100.969 38.6338 94.376 38.7018C94.376 38.7018 90.3127 38.7915 84.3282 40.3226C84.3282 40.3228 84.0108 56.2734 98.8379 56.6624Z" fill="#FBCDB4"/>
<path d="M105.499 47.7156H90.3787L89.2896 29.2148H101.627L105.499 47.7156Z" fill="#FBCDB4"/>
<path d="M89.2896 29.2148L89.6605 35.5144C89.6613 35.5155 92.5551 39.5876 103.563 38.4652L101.627 29.2148H89.2896Z" fill="#EEA584"/>
<path d="M87.3826 23.2081C87.2574 25.2856 85.4722 26.8682 83.3953 26.7429C81.3184 26.6177 79.7363 24.8321 79.8614 22.7546C79.9867 20.6771 81.7719 19.0946 83.8487 19.2198C85.9256 19.3451 87.5078 21.1307 87.3826 23.2081Z" fill="#EEA584"/>
<path d="M112.107 24.3058C111.981 26.3833 110.196 27.9659 108.119 27.8406C106.043 27.7154 104.46 25.9298 104.586 23.8523C104.711 21.7749 106.496 20.1923 108.573 20.3175C110.65 20.4427 112.232 22.2284 112.107 24.3058Z" fill="#FBCDB4"/>
<path d="M105.978 30.0504C110.091 24.2266 108.706 16.17 102.884 12.0555C97.0617 7.94098 89.0073 9.32661 84.8938 15.1504C80.7804 20.9742 82.1657 29.0308 87.9879 33.1453C93.8102 37.2598 101.865 35.8742 105.978 30.0504Z" fill="#FBCDB4"/>
<path d="M87.3832 21.9277C87.3183 22.5301 86.7774 22.9659 86.1752 22.9009C85.5729 22.8359 85.1373 22.2949 85.2022 21.6925C85.2671 21.0901 85.8079 20.6543 86.4102 20.7193C87.0125 20.7842 87.4482 21.3252 87.3832 21.9277Z" fill="#2D2327"/>
<path d="M98.2411 23.0996C98.1762 23.7021 97.6353 24.1377 97.0331 24.0728C96.4308 24.0079 95.9952 23.4669 96.0601 22.8644C96.125 22.262 96.6658 21.8263 97.2682 21.8912C97.8705 21.9561 98.3061 22.4971 98.2411 23.0996Z" fill="#2D2327"/>
<path d="M96.7498 29.907C96.3183 27.7781 94.7682 26.0952 92.8027 25.3187C92.7728 25.3706 92.751 25.4273 92.7162 25.4762C92.2173 26.1771 90.5839 27.1915 89.6844 27.0193C88.6298 26.8175 88.6636 25.9648 89.0149 25C85.8375 25.6807 83.8086 28.6301 84.4455 31.7725C85.1079 35.0404 88.3992 37.272 91.797 36.7569C95.1947 36.2418 97.4122 33.175 96.7498 29.907Z" fill="#5B3322"/>
<path d="M87.9043 28.7656C87.9043 28.7656 89.888 30.2969 91.7807 28.8977" stroke="white" stroke-width="0.981" stroke-linecap="round" stroke-linejoin="round"/>
<path d="M83.7213 17.2773C81.4297 18.2235 79.8847 14.8972 80.1319 12.9948C80.4151 10.8147 82.2588 9.30259 84.3919 9.3856C83.6593 7.52757 86.4106 5.8368 87.9065 6.93507C88.2503 4.59314 90.6005 3.89351 92.705 3.85282C95.3311 3.80209 97.805 5.29152 98.3238 7.93196C99.7187 7.36186 101.654 7.67647 102.412 9.19562C106.175 8.10755 110.709 9.87961 111.527 14.0846C112.031 16.6688 111.219 18.4899 110.243 20.7634C108.271 19.9348 106.223 23.5634 105.671 24.9548C104.379 24.5427 103.057 24.3486 102.204 23.1205C101.302 21.8232 101.247 19.9386 101.495 18.452C99.7829 18.9838 97.7536 17.8565 96.7229 16.5096C96.1618 17.1074 95.2222 17.2996 94.4144 17.3783C93.3496 17.4821 92.437 17.273 91.4901 16.793C91.1258 16.6082 90.183 15.6796 89.8897 15.6714C89.3184 15.6554 88.8471 16.6264 88.1954 16.8365C87.3008 17.1251 86.279 16.6741 85.4884 16.3169C85.1235 16.7007 84.504 17.1761 83.7213 17.2773Z" fill="#5B3322"/>
<path d="M3.80272 11.1371L12.3451 36.8571C12.9412 38.6521 14.898 39.604 16.6777 38.9648L36.6664 30.7947L27.9599 2.63087L24.2684 3.85174L23.0555 0L5.6671 6.98199C4.06164 7.67298 3.25167 9.47796 3.80272 11.1371Z" fill="#E76B39"/>
<path d="M37.7549 70.017C30.3153 64.2635 26.3222 52.4342 24.6966 46.4095C24.7229 46.1763 24.7012 45.9575 24.6024 45.7674C24.5727 45.7104 24.5324 45.6607 24.4867 45.6143C24.0239 43.8201 23.8086 42.704 23.8086 42.704C24.1203 41.9825 24.4505 41.2595 24.5853 40.3876C24.7337 39.4273 24.9312 38.4221 24.8207 37.4469L24.6598 35.608L15.7774 39.2054C14.9844 37.3944 14.3282 36.0115 12.8858 34.6698C14.789 33.1672 17.2314 31.7472 18.3408 29.4752C18.6739 28.7931 18.8746 28.1508 18.7865 27.3537C18.7477 27.0031 18.3909 26.4083 18.4442 26.0928C18.5151 25.6728 18.9695 25.4706 19.2702 25.1695C20.5199 23.918 21.089 22.0291 20.2768 20.3766C19.67 19.1422 19.1381 19.583 18.0908 20.1015C16.8066 20.7372 15.4257 21.0845 14.0135 21.3625C13.1845 21.5258 12.201 21.7151 11.246 22.003C9.72308 18.4843 3.10227 9.04314 0.498621 12.7664C-0.839837 14.6806 0.791061 16.3158 2.16234 17.6224C3.63076 19.0217 4.69568 20.5253 5.58809 22.352C6.0472 23.2917 6.69959 24.3294 7.13996 25.3858C6.41773 26.7402 5.67792 28.1214 5.14671 29.5549C3.63675 33.6298 3.3643 37.3207 3.57243 41.6537C3.70986 44.5131 4.01187 47.0848 5.64276 49.4321C5.59322 60.4388 7.0604 98.8282 29.6694 104.673C56.1107 111.509 48.8348 78.5858 37.7549 70.017Z" fill="#FBCDB4"/>
<path d="M37.7549 70.018C37.1536 69.553 36.583 69.0361 36.0262 68.498C36.5621 69.5619 37.0913 70.6464 37.4443 71.8314C38.754 76.2276 39.0005 80.7357 38.9998 85.2966C38.9988 91.7793 38.2741 98.2198 35.0709 103.978C34.773 104.514 34.4492 105.013 34.1094 105.49C55.2123 107.606 48.1632 78.0675 37.7549 70.018Z" fill="#EEA584"/>
<path d="M126.077 117.214L138.141 54.5273" stroke="#D69135" stroke-width="5" stroke-linecap="round" stroke-linejoin="round"/>
<path d="M129.707 61.3302C128.168 61.1341 127.049 62.1876 126.572 63.5622C126.296 64.3569 126.249 65.0376 125.818 65.7819C125.267 66.7339 124.47 67.2583 123.825 68.0972C122.109 70.3287 124.741 72.2943 126.981 72.1255C130.259 71.8786 131.04 68.5696 131.481 65.8935C131.772 64.1293 131.751 62.6139 130.266 61.5387C130.125 61.5585 130.076 61.5854 129.707 61.3302Z" fill="#EEA584"/>
<path d="M134.957 86.7115C134.02 85.8933 134.524 83.4374 134.244 82.1409C133.377 82.3393 131.982 81.4494 131.21 81.8492C131.21 85.2528 129.281 88.676 128.15 86.2029C127.131 83.9746 126.174 80.4196 126.081 78.0276C126.027 76.6624 126.722 75.9766 127.463 74.9018C125.743 72.757 127.163 71.252 127.808 68.9724C127.808 68.9724 127.353 67.5487 127.455 66.3634C127.563 65.1013 128.533 64.2597 129.481 63.537C128.178 62.6445 127.956 61.2825 128.872 59.8342C129.656 58.594 131.678 58.2371 133.078 57.9564C134.468 57.6778 136.047 57.3145 137.428 57.3523C139.414 57.4068 141.282 58.502 142.914 59.5312C145.353 61.0689 147.631 62.6486 149.907 64.4152C154.113 67.679 156.243 72.0095 158.007 76.9816C160.531 84.0934 163.031 91.18 165.425 98.339C167.846 105.579 170.377 113.896 163.838 119.667C159.059 123.885 152.375 125.565 146.62 122.39C140.617 119.079 138.991 111.376 138.966 105.098C138.945 99.7985 139.357 89.4991 139.357 89.4991C139.324 89.6489 135.882 87.5192 134.957 86.7115Z" fill="#FBCDB4"/>
<path d="M153.057 114.822C149.199 115.027 144.551 114.436 141.082 112.679C140.604 112.437 140.126 112.1 139.653 111.719C140.595 116.075 142.644 120.196 146.619 122.389C152.375 125.564 159.059 123.885 163.838 119.666C168.018 115.976 168.489 111.246 167.654 106.422C167.11 107.237 166.467 108.055 165.681 108.907C162.4 112.46 157.902 114.565 153.057 114.822Z" fill="#EEA584"/>
<path d="M129.48 63.5375L136.415 62.4004" stroke="#EEA584" stroke-linecap="round" stroke-linejoin="round"/>
<path d="M127.808 68.972L135.54 67.748" stroke="#EEA584" stroke-linecap="round" stroke-linejoin="round"/>
<path d="M127.462 74.901L134.957 74.166" stroke="#EEA584" stroke-linecap="round" stroke-linejoin="round"/>
<path d="M139.356 89.5C139.356 89.5 141.762 90.6023 144.582 90.0188" stroke="#EEA584" stroke-linecap="round" stroke-linejoin="round"/>
<path d="M90.9424 106.887V159.659C90.9424 161.306 103.5 162.641 118.991 162.641C134.481 162.641 147.039 161.306 147.039 159.659V106.887H90.9424Z" fill="#AEBDC6"/>
<path d="M134.244 162.161C134.994 162.11 135.718 162.054 136.415 161.995V106.887H134.244V162.161Z" fill="white"/>
<path d="M123.273 162.607C125.434 162.572 127.511 162.509 129.481 162.425V106.887H123.273V162.607Z" fill="white"/>
<path d="M147.039 106.887C147.039 108.534 134.481 109.869 118.991 109.869C103.5 109.869 90.9424 108.534 90.9424 106.887C90.9424 105.24 103.5 103.904 118.991 103.904C134.481 103.904 147.039 105.24 147.039 106.887Z" fill="#526586"/>
<path d="M95.0605 108.442C99.9911 109.297 108.863 109.868 118.991 109.868C129.118 109.868 137.99 109.297 142.921 108.442C137.99 107.587 129.118 107.016 118.991 107.016C108.863 107.016 99.9911 107.587 95.0605 108.442Z" fill="#FFDE84"/>
<path d="M125.855 108.019L129.718 88.007C129.92 86.9524 130.94 86.2633 131.995 86.4646C133.049 86.6675 133.739 87.6878 133.537 88.7424L129.78 108.208C129.6 109.138 125.652 109.073 125.855 108.019Z" fill="#D69135"/>
<path d="M98.3309 113.064H82.4878V117.862H98.3309V113.064Z" fill="#AEBDC6"/>
<path d="M154.96 113.064H139.117V117.862H154.96V113.064Z" fill="#AEBDC6"/>
<path d="M18.4443 26.0938C18.4443 26.0938 6.42497 28.6461 4.37012 32.0222" stroke="#EEA584" stroke-linecap="round" stroke-linejoin="round"/>
<path d="M7.14014 25.3868C7.14014 25.3868 8.47859 22.6443 11.2462 22.0039" stroke="#EEA584" stroke-linecap="round" stroke-linejoin="round"/>
<path d="M12.8859 34.6699L9.7041 36.8311" stroke="#EEA584" stroke-linecap="round" stroke-linejoin="round"/>
<path d="M15.7773 39.2051C15.7773 39.2051 17.2224 42.9175 16.5742 45.6404" stroke="#EEA584" stroke-linecap="round" stroke-linejoin="round"/>
<path d="M23.8086 42.7051L21.6401 46.5494" stroke="#EEA584" stroke-linecap="round" stroke-linejoin="round"/>
<path d="M30.3034 125.227C30.3034 122.602 27.1962 120.475 23.3632 120.475C19.5302 120.475 16.4229 122.602 16.4229 125.227C16.4229 126.309 16.958 127.05 17.8488 127.551V130.068H28.8671V127.557C29.7643 127.056 30.3034 126.314 30.3034 125.227Z" fill="#526586"/>
<path d="M27.656 152.331H18.9407C16.4659 152.331 14.5169 150.22 14.7134 147.753L17.46 132.791H29.1368L31.8834 147.753C32.0799 150.22 30.1309 152.331 27.656 152.331Z" stroke="#AEBDC6" stroke-linecap="round" stroke-linejoin="round"/>
<path d="M27.656 152.331H18.9407C16.4659 152.331 14.5169 150.22 14.7134 147.753L17.46 132.791H29.1368L31.8834 147.753C32.0799 150.22 30.1309 152.331 27.656 152.331Z" stroke="#AEBDC6" stroke-linecap="round" stroke-linejoin="round"/>
<path d="M18.9406 149.998C18.4025 149.998 17.905 149.78 17.5397 149.385C17.1963 149.012 17.0186 148.536 17.0341 148.034L19.0731 136.927L27.193 135.125L29.5627 148.034C29.5783 148.536 29.4006 149.012 29.0572 149.385C28.6919 149.78 28.1945 149.998 27.6563 149.998H18.9406Z" fill="#EFB563"/>
<path d="M29.3314 132.791H17.3953C16.6467 132.791 16.0342 132.179 16.0342 131.43C16.0342 130.681 16.6467 130.068 17.3953 130.068H29.3314C30.08 130.068 30.6925 130.681 30.6925 131.43C30.6925 132.179 30.08 132.791 29.3314 132.791Z" stroke="#AEBDC6" stroke-linecap="round" stroke-linejoin="round"/>
<path d="M24.5245 123.904C24.5245 124.223 24.0893 124.481 23.5523 124.481C23.0153 124.481 22.5801 124.223 22.5801 123.904C22.5801 123.585 23.0154 123.326 23.5523 123.326C24.0892 123.326 24.5245 123.585 24.5245 123.904Z" fill="#AEBDC6"/>
<path d="M20.3116 123.325C20.8485 123.325 21.2838 123.066 21.2838 122.747C21.2838 122.429 20.8485 122.17 20.3116 122.17C19.7746 122.17 19.3394 122.429 19.3394 122.747C19.3394 123.066 19.7746 123.325 20.3116 123.325Z" fill="#AEBDC6"/>
<path d="M26.4693 123.325C27.0062 123.325 27.4415 123.066 27.4415 122.747C27.4415 122.429 27.0062 122.17 26.4693 122.17C25.9323 122.17 25.4971 122.429 25.4971 122.747C25.4971 123.066 25.9323 123.325 26.4693 123.325Z" fill="#AEBDC6"/>
<path d="M49.569 125.227C49.569 122.602 46.4618 120.475 42.6288 120.475C38.7958 120.475 35.6885 122.602 35.6885 125.227C35.6885 126.309 36.2236 127.05 37.1144 127.551V130.068H48.1327V127.557C49.03 127.056 49.569 126.314 49.569 125.227Z" fill="#526586"/>
<path d="M46.9217 152.331H38.2064C35.7315 152.331 33.7825 150.22 33.979 147.753L36.7256 132.791H48.4024L51.149 147.753C51.3455 150.22 49.3965 152.331 46.9217 152.331Z" stroke="#AEBDC6" stroke-linecap="round" stroke-linejoin="round"/>
<path d="M46.9217 152.331H38.2064C35.7315 152.331 33.7825 150.22 33.979 147.753L36.7256 132.791H48.4024L51.149 147.753C51.3455 150.22 49.3965 152.331 46.9217 152.331Z" stroke="#AEBDC6" stroke-linecap="round" stroke-linejoin="round"/>
<path d="M38.2062 149.998C37.668 149.998 37.1706 149.78 36.8052 149.385C36.4619 149.013 36.2841 148.536 36.2998 148.035L38.3387 136.928H46.7069L48.8283 148.035C48.8439 148.536 48.6662 149.013 48.3229 149.385C47.9575 149.78 47.46 149.998 46.9219 149.998H38.2062Z" fill="#E76B39"/>
<path d="M48.597 132.791H36.6609C35.9123 132.791 35.2998 132.179 35.2998 131.43C35.2998 130.681 35.9123 130.068 36.6609 130.068H48.597C49.3456 130.068 49.9581 130.681 49.9581 131.43C49.9581 132.179 49.3456 132.791 48.597 132.791Z" stroke="#AEBDC6" stroke-linecap="round" stroke-linejoin="round"/>
<path d="M43.7901 123.904C43.7901 124.223 43.3549 124.481 42.8179 124.481C42.2809 124.481 41.8457 124.223 41.8457 123.904C41.8457 123.585 42.281 123.326 42.8179 123.326C43.3548 123.326 43.7901 123.585 43.7901 123.904Z" fill="#AEBDC6"/>
<path d="M39.5772 123.325C40.1141 123.325 40.5494 123.066 40.5494 122.747C40.5494 122.429 40.1141 122.17 39.5772 122.17C39.0403 122.17 38.605 122.429 38.605 122.747C38.605 123.066 39.0403 123.325 39.5772 123.325Z" fill="#AEBDC6"/>
<path d="M45.7349 123.325C46.2718 123.325 46.7071 123.066 46.7071 122.747C46.7071 122.429 46.2718 122.17 45.7349 122.17C45.198 122.17 44.7627 122.429 44.7627 122.747C44.7627 123.066 45.198 123.325 45.7349 123.325Z" fill="#AEBDC6"/>
</g>
<defs>
<clipPath id="clip0_5781_15055">
<rect width="168" height="174" fill="white"/>
</clipPath>
</defs>
</svg>
