<svg width="120" height="36" viewBox="0 0 120 36" fill="none" xmlns="http://www.w3.org/2000/svg">
<g id="Group 39928">
<path id="Vector" d="M94.8 31V11.3654C94.8 8.69712 95.584 6.57004 97.152 4.98417C98.7449 3.3983 100.997 2.60536 103.909 2.60536C104.805 2.60536 105.701 2.69346 106.597 2.86967C107.518 3.02071 108.29 3.27243 108.912 3.62485L106.896 9.55298C106.622 9.42712 106.324 9.31384 106 9.21315C105.676 9.11246 105.34 9.06212 104.992 9.06212C104.395 9.06212 103.909 9.25091 103.536 9.6285C103.163 10.0061 102.976 10.6102 102.976 11.4409V12.4227L103.237 15.9342V31H94.8ZM92 17.7089V11.4787H107.419V17.7089H92ZM110.704 31V10.3459H119.141V31H110.704ZM114.923 8.68453C113.38 8.68453 112.148 8.26918 111.227 7.43849C110.306 6.6078 109.845 5.57572 109.845 4.34227C109.845 3.10881 110.306 2.07674 111.227 1.24604C112.148 0.415347 113.38 0 114.923 0C116.466 0 117.698 0.390175 118.619 1.17052C119.54 1.95087 120 2.95777 120 4.19123C120 5.5002 119.54 6.58262 118.619 7.43849C117.698 8.26918 116.466 8.68453 114.923 8.68453Z" fill="white"/>
<path id="Vector_2" d="M78.649 31V11.6383C78.649 9.00709 79.3907 6.90957 80.8742 5.34575C82.3812 3.78192 84.5121 3 87.2671 3C88.1148 3 88.9625 3.08688 89.8102 3.26064C90.6814 3.40957 91.4113 3.6578 92 4.00532L90.0927 9.85106C89.8337 9.72695 89.5511 9.61525 89.245 9.51596C88.9389 9.41667 88.621 9.36702 88.2914 9.36702C87.7263 9.36702 87.2671 9.55319 86.9139 9.92553C86.5607 10.2979 86.3841 10.8936 86.3841 11.7128V12.6809L86.6313 16.1436V31H78.649ZM76 17.8936V11.75H90.5872V17.8936H76Z" fill="white"/>
<path id="Vector_3" d="M41.8411 9.98113C43.3709 9.98113 44.755 10.3082 45.9934 10.9623C47.2318 11.5912 48.2031 12.5849 48.9073 13.9434C49.6358 15.3019 50 17.0629 50 19.2264V31H41.7682V20.6981C41.7682 19.4151 41.5497 18.5094 41.1126 17.9811C40.6755 17.4277 40.0806 17.1509 39.3278 17.1509C38.7693 17.1509 38.2472 17.2893 37.7616 17.566C37.3002 17.8176 36.9238 18.2453 36.6325 18.8491C36.3653 19.4528 36.2318 20.2704 36.2318 21.3019V31H28V3H36.2318V16.3962L34.2649 14.6604C35.0419 13.1006 36.0861 11.9308 37.3974 11.1509C38.7329 10.3711 40.2141 9.98113 41.8411 9.98113Z" fill="white"/>
<path id="Vector_4" d="M13.8494 31C11.8608 31 10.0142 30.6803 8.30966 30.041C6.62879 29.377 5.16098 28.4426 3.90625 27.2377C2.67519 26.0328 1.71638 24.6066 1.02983 22.959C0.343277 21.3115 0 19.4918 0 17.5C0 15.5082 0.343277 13.6885 1.02983 12.041C1.71638 10.3934 2.67519 8.96721 3.90625 7.7623C5.16098 6.55738 6.62879 5.63525 8.30966 4.9959C10.0142 4.33197 11.8608 4 13.8494 4C16.2879 4 18.4422 4.44262 20.3125 5.32787C22.2064 6.21311 23.7689 7.4918 25 9.16393L19.7088 14.0697C18.9749 13.1107 18.1581 12.373 17.2585 11.8566C16.3826 11.3156 15.3883 11.0451 14.2756 11.0451C13.3996 11.0451 12.6065 11.1926 11.8963 11.4877C11.1861 11.7828 10.5705 12.2131 10.0497 12.7787C9.55256 13.3443 9.16193 14.0328 8.87784 14.8443C8.59375 15.6311 8.4517 16.5164 8.4517 17.5C8.4517 18.4836 8.59375 19.3811 8.87784 20.1926C9.16193 20.9795 9.55256 21.6557 10.0497 22.2213C10.5705 22.7869 11.1861 23.2172 11.8963 23.5123C12.6065 23.8074 13.3996 23.9549 14.2756 23.9549C15.3883 23.9549 16.3826 23.6967 17.2585 23.1803C18.1581 22.6393 18.9749 21.8893 19.7088 20.9303L25 25.8361C23.7689 27.4836 22.2064 28.7623 20.3125 29.6721C18.4422 30.5574 16.2879 31 13.8494 31Z" fill="white"/>
<path id="Vector 3" d="M73 16H56V33L59.585 27.1812H73V16Z" fill="white"/>
<path id="Vector 3 (Stroke)" fill-rule="evenodd" clip-rule="evenodd" d="M54 16.2426C54 15.5563 54.5362 15 55.1976 15H72.8024C73.4638 15 74 15.5563 74 16.2426V28.42C74 29.1063 73.4638 29.6626 72.8024 29.6626H59.5837L56.221 35.4027C55.942 35.8789 55.3917 36.1041 54.8746 35.9538C54.3575 35.8036 54 35.3145 54 34.7573V16.2426ZM56.3952 17.4852V30.3207L57.8868 27.7746C58.104 27.4038 58.492 27.1775 58.9102 27.1775H71.6048V17.4852H56.3952Z" fill="white"/>
<path id="Vector 4 (Stroke)" fill-rule="evenodd" clip-rule="evenodd" d="M62 22C62 21.4477 62.5596 21 63.25 21H75V23H63.25C62.5596 23 62 22.5523 62 22Z" fill="#EB4351"/>
</g>
</svg>
