<svg width="16" height="16" viewBox="0 0 16 16" fill="none" xmlns="http://www.w3.org/2000/svg">
<path fill-rule="evenodd" clip-rule="evenodd" d="M8.00039 2.40039C8.21256 2.40039 8.41605 2.48468 8.56608 2.63471C8.7161 2.78473 8.80039 2.98822 8.80039 3.20039V7.20039H12.8004C13.0126 7.20039 13.216 7.28468 13.3661 7.43471C13.5161 7.58473 13.6004 7.78822 13.6004 8.00039C13.6004 8.21256 13.5161 8.41605 13.3661 8.56608C13.216 8.7161 13.0126 8.80039 12.8004 8.80039H8.80039V12.8004C8.80039 13.0126 8.7161 13.216 8.56608 13.3661C8.41605 13.5161 8.21256 13.6004 8.00039 13.6004C7.78822 13.6004 7.58473 13.5161 7.43471 13.3661C7.28468 13.216 7.20039 13.0126 7.20039 12.8004V8.80039H3.20039C2.98822 8.80039 2.78473 8.7161 2.63471 8.56608C2.48468 8.41605 2.40039 8.21256 2.40039 8.00039C2.40039 7.78822 2.48468 7.58473 2.63471 7.43471C2.78473 7.28468 2.98822 7.20039 3.20039 7.20039H7.20039V3.20039C7.20039 2.98822 7.28468 2.78473 7.43471 2.63471C7.58473 2.48468 7.78822 2.40039 8.00039 2.40039Z" fill="#636363"/>
</svg>
